<svg width="14" height="14" viewBox="0 0 14 14" fill="none" xmlns="http://www.w3.org/2000/svg">
<path fill-rule="evenodd" clip-rule="evenodd" d="M7 12.8334C3.78 12.8334 1.16666 10.2259 1.16666 7.00008C1.16666 3.78008 3.78 1.16675 7 1.16675C10.2258 1.16675 12.8333 3.78008 12.8333 7.00008C12.8333 10.2259 10.2258 12.8334 7 12.8334ZM8.86083 9.16425C8.93083 9.20508 9.00666 9.22841 9.08833 9.22841C9.23416 9.22841 9.38 9.15258 9.46166 9.01258C9.58416 8.80841 9.52 8.54008 9.31 8.41175L7.23333 7.17508V4.48008C7.23333 4.23508 7.035 4.04258 6.79583 4.04258C6.55666 4.04258 6.35833 4.23508 6.35833 4.48008V7.42591C6.35833 7.57758 6.44 7.71758 6.57416 7.79925L8.86083 9.16425Z" fill="#AB94FF"/>
</svg>
